<svg class="size-6 md:size-10 mx-auto sm:mx-0" width="48" height="48" viewBox="0 0 48 48" fill="none" xmlns="http://www.w3.org/2000/svg">
    <path d="M14.7298 40.1472C14.695 40.0857 14.6639 40.0221 14.6368 39.9568C14.4497 39.5235 14.3922 39.0453 14.4713 38.58H3.39139L19.8574 9.60244L25.2634 19.1057L26.8305 16.3324L22.1181 8.0309C21.8923 7.60574 21.5635 7.24396 21.1618 6.97863C20.7601 6.71331 20.2983 6.5529 19.8186 6.51208C19.3399 6.53384 18.877 6.68951 18.4824 6.96138C18.0878 7.23325 17.7774 7.6104 17.5865 8.04994L0.905195 37.3791C0.655848 37.7931 0.512082 38.2622 0.486543 38.7448C0.461003 39.2275 0.554474 39.7091 0.758732 40.1472C1.01527 40.5518 1.3799 40.8765 1.81137 41.0846C2.24285 41.2927 2.72396 41.3759 3.20026 41.3248H17.1721C16.6957 41.3766 16.2143 41.2938 15.7827 41.0856C15.351 40.8774 14.9865 40.5523 14.7305 40.1472H14.7298Z" fill="#00C492"/>
    <path d="M46.852 37.3783L33.1438 13.2318C32.919 12.8021 32.5895 12.436 32.1858 12.1672C31.7821 11.8984 31.3173 11.7357 30.8341 11.6939C30.356 11.7146 29.8934 11.8693 29.499 12.1403C29.1046 12.4114 28.7943 12.7878 28.6035 13.2266L26.8306 16.3316L28.408 19.1056L30.8488 14.7843L44.4105 38.5793H39.2535C39.3194 38.9726 39.2823 39.3763 39.1459 39.751C39.1171 39.8338 39.0811 39.914 39.0382 39.9905L38.9943 40.0783C38.7141 40.474 38.3408 40.7946 37.9073 41.0118C37.4738 41.2289 36.9935 41.3359 36.5088 41.3233H44.576C45.0607 41.3363 45.5412 41.2295 45.9747 41.0123C46.4083 40.7951 46.7816 40.4743 47.0614 40.0783C47.2824 39.6537 47.3798 39.1756 47.3428 38.6984C47.3058 38.2211 47.1358 37.7638 46.852 37.3783V37.3783Z" fill="#008776"/>
    <path d="M38.9949 40.0791L39.0389 39.9912C39.0815 39.9147 39.1173 39.8346 39.1458 39.7517C39.2823 39.377 39.3193 38.9734 39.2534 38.5801C39.1773 38.1559 39.025 37.749 38.8038 37.3791L28.4181 19.1057L26.8312 16.3324L25.2538 19.1057L14.8718 37.3791C14.6703 37.7534 14.5348 38.1597 14.4713 38.5801C14.3877 39.0442 14.4403 39.5226 14.6228 39.9575C14.6499 40.0228 14.681 40.0864 14.7159 40.1479C14.9725 40.5524 15.3372 40.8769 15.7686 41.0849C16.2001 41.2928 16.6811 41.3759 17.1574 41.3248H36.4941C36.9811 41.3392 37.4641 41.2331 37.9003 41.0159C38.3364 40.7987 38.7122 40.4772 38.9942 40.0798L38.9949 40.0791ZM26.8305 21.8797L36.3235 38.5793H17.3419L26.8305 21.8797Z" fill="#2D4A5D"/>
</svg>
